<?xml version="1.0" encoding="utf-8"?>
<!-- Generator: Adobe Illustrator 26.0.0, SVG Export Plug-In . SVG Version: 6.00 Build 0)  -->
<svg version="1.1" id="Layer_1" xmlns="http://www.w3.org/2000/svg" xmlns:xlink="http://www.w3.org/1999/xlink" x="0px" y="0px"
	 viewBox="0 0 2000 300" style="enable-background:new 0 0 2000 300;" xml:space="preserve">
<style type="text/css">
	.st0{fill:#575756;}
</style>
<path class="st0" d="M87.79,260.46c-16.43,0-29.27-2.31-38.52-6.94c-9.25-4.62-15.73-11.56-19.43-20.82
	c-3.7-9.25-5.55-20.7-5.55-34.35v-77.38c0-22.21,4.97-38.57,14.92-49.1c9.94-10.52,26.14-15.79,48.58-15.79h104.44
	c15.96,0,28.16,0.87,36.61,2.6c8.44,1.73,12.67,3.53,12.67,5.38l-6.94,28.8c-3.94-0.69-15.56-1.44-34.87-2.26
	c-19.32-0.81-47.36-1.21-84.14-1.21h-17.7c-18.51,0-27.76,8.21-27.76,24.64v88.48c0,7.87,2.02,13.94,6.07,18.22
	c4.04,4.28,11.28,6.42,21.69,6.42h14.23c38.4,0,68.18-0.4,89.35-1.21c21.17-0.81,34.29-1.67,39.38-2.6l14.23,22.9
	c0,1.16-1.91,2.9-5.73,5.21c-3.82,2.31-10.82,4.4-20.99,6.25c-10.18,1.85-24.87,2.78-44.07,2.78H87.79z"/>
<path class="st0" d="M282.79,260.46V35.61h42.33v76.34c9.72-1.85,21.39-3.47,35.05-4.86c13.65-1.39,29.26-2.08,46.84-2.08h17.35
	c11.56,0,20.47,1.62,26.72,4.86c6.25,3.24,10.7,7.29,13.36,12.14c2.66,4.86,4.28,9.77,4.86,14.75c0.57,4.98,0.87,9.2,0.87,12.67
	v111.04h-42.33V148.73c0-9.25-5.55-13.88-16.66-13.88h-75.64c-4.4,0-7.23,0.41-8.5,1.21c-1.27,0.81-1.91,2.95-1.91,6.42v117.97
	H282.79z"/>
<path class="st0" d="M510.06,260.46V101.54h28.6l13.03,10.41c6.01-3.24,12.49-5.78,19.43-7.63c6.94-1.85,15.73-2.78,26.37-2.78
	c16.88,0,30.59,1.85,41.12,5.55c10.52,3.7,17.52,6.48,20.99,8.33l-12.14,30.19c-2.78-1.39-7.35-3.18-13.71-5.38
	c-6.36-2.2-13.83-4.22-22.38-6.07c-8.56-1.85-17.93-2.78-28.11-2.78h-3.82c-11.1,0-16.11,3.9-19.46,8.29
	c-3.35,4.4-7.38,9.99-7.6,20.16v100.63H510.06z"/>
<path class="st0" d="M726.23,260.46c-15.5,0-27.01-3.12-34.52-9.37c-7.52-6.25-11.28-16.42-11.28-30.54v-71.13
	c0-3.47,0.29-7.69,0.87-12.67c0.57-4.97,2.2-9.89,4.86-14.75c2.66-4.86,7.17-8.9,13.53-12.14c6.36-3.24,15.21-4.86,26.54-4.86H822
	c11.56,0,20.47,1.62,26.72,4.86c6.25,3.24,10.7,7.29,13.36,12.14c2.66,4.86,4.28,9.77,4.86,14.75c0.57,4.98,0.87,9.2,0.87,12.67
	v66.62c0,4.16-0.29,8.79-0.87,13.88c-0.58,5.09-2.26,9.95-5.03,14.57c-2.78,4.63-7.29,8.45-13.53,11.45
	c-6.25,3.01-15.04,4.51-26.37,4.51H726.23z M739.42,230.61h69.4c11.33,0,17-4.62,17-13.88v-68.01c0-9.25-5.67-13.88-17-13.88h-69.4
	c-11.1,0-16.66,4.63-16.66,13.88v68.01C722.76,225.99,728.31,230.61,739.42,230.61z"/>
<path class="st0" d="M905.97,260.46V105.01h28.45l13.88,6.94c9.72-1.85,21.39-3.47,35.05-4.86c13.65-1.39,29.26-2.08,46.84-2.08
	h17.35c11.56,0,20.47,1.62,26.72,4.86c6.25,3.24,10.7,7.29,13.36,12.14c2.66,4.86,4.28,9.77,4.86,14.75
	c0.57,4.98,0.87,9.2,0.87,12.67v111.04h-42.33V148.73c0-9.25-5.55-13.88-16.66-13.88h-75.64c-4.4,0-7.23,0.41-8.5,1.21
	c-1.27,0.81-1.91,2.95-1.91,6.42v117.97H905.97z"/>
<path class="st0" d="M1175.58,260.46c-15.5,0-27.01-3.12-34.53-9.37c-7.52-6.25-11.28-16.42-11.28-30.54v-71.13
	c0-3.47,0.29-7.69,0.87-12.67c0.57-4.97,2.2-9.89,4.86-14.75c2.66-4.86,7.17-8.9,13.53-12.14c6.36-3.24,15.21-4.86,26.54-4.86h95.77
	c11.56,0,20.47,1.62,26.72,4.86c6.25,3.24,10.7,7.29,13.36,12.14c2.66,4.86,4.28,9.77,4.86,14.75c0.57,4.98,0.87,9.2,0.87,12.67
	v66.62c0,4.16-0.29,8.79-0.87,13.88c-0.58,5.09-2.26,9.95-5.03,14.57c-2.78,4.63-7.29,8.45-13.53,11.45
	c-6.25,3.01-15.04,4.51-26.37,4.51H1175.58z M1188.76,230.61h69.4c11.33,0,17-4.62,17-13.88v-68.01c0-9.25-5.67-13.88-17-13.88
	h-69.4c-11.1,0-16.65,4.63-16.65,13.88v68.01C1172.11,225.99,1177.66,230.61,1188.76,230.61z"/>
<path class="st0" d="M1394.52,260.46c-15.5,0-26.49-0.81-32.96-2.43c-6.48-1.62-9.71-3.24-9.71-4.86l10.41-26.02
	c6.71,0.69,19.02,1.45,36.95,2.26c17.92,0.81,40.08,1.21,66.45,1.21H1483c5.78,0,9.42-1.56,10.93-4.68
	c1.5-3.12,2.26-7.34,2.26-12.66c0-5.32-0.87-9.6-2.6-12.84c-1.74-3.24-5.27-4.86-10.58-4.86h-85.36c-16.2,0-27.88-3.06-35.05-9.2
	c-7.17-6.13-10.76-15.32-10.76-27.58v-13.88c0-3.24,0.35-7.05,1.04-11.45c0.69-4.39,2.43-8.79,5.21-13.19
	c2.78-4.39,7.29-8.04,13.53-10.93c6.25-2.89,14.92-4.34,26.03-4.34h95.77c13.88,0,23.71,0.81,29.49,2.43
	c5.78,1.62,8.67,3.24,8.67,4.86l-3.47,26.02c-6.71-0.69-19.08-1.44-37.13-2.25c-18.04-0.81-40.14-1.21-66.27-1.21h-17.35
	c-5.79,0-9.43,1.56-10.93,4.68c-1.51,3.12-2.26,6.77-2.26,10.93c0,4.4,0.75,8.04,2.26,10.93c1.5,2.9,5.14,4.34,10.93,4.34h85.36
	c15.73,0,27.29,3.24,34.7,9.72c7.4,6.48,11.1,14.69,11.1,24.64v20.47c0,4.16-0.29,8.56-0.87,13.19c-0.58,4.63-2.26,8.97-5.03,13.01
	c-2.78,4.05-7.29,7.35-13.53,9.89c-6.25,2.55-15.04,3.82-26.37,3.82H1394.52z"/>
<path class="st0" d="M1619.02,260.46c-11.57,0-20.47-1.5-26.72-4.51c-6.25-3-10.7-6.82-13.36-11.45c-2.66-4.62-4.28-9.48-4.86-14.57
	c-0.58-5.09-0.87-9.72-0.87-13.88v-66.62c0-3.47,0.29-7.69,0.87-12.67c0.57-4.97,2.2-9.89,4.86-14.75
	c2.66-4.86,7.17-8.9,13.53-12.14c6.36-3.24,15.21-4.86,26.54-4.86h74.6c15.27,0,27.24,1.45,35.91,4.34
	c8.68,2.9,14.8,7.58,18.39,14.05c3.58,6.48,5.38,15.15,5.38,26.02v51.35h-60.72c-20.82,0-37.77-0.46-50.83-1.39
	c-13.07-0.92-21.8-1.5-26.2-1.74v19.08c-0.23,9.25,5.32,13.88,16.66,13.88h17.7c12.49,0,24.69-0.17,36.61-0.52
	c11.91-0.35,22.84-0.81,32.79-1.39c9.94-0.58,17.92-1.1,23.94-1.56l13.88,22.55c0,7.17-22.79,10.76-68.36,10.76H1619.02z
	 M1615.55,170.93h95.42v-22.21c0-4.62-0.52-7.86-1.56-9.71c-1.04-1.85-4.11-3-9.2-3.47c-5.09-0.46-13.77-0.69-26.02-0.69h-41.98
	c-11.1,0-16.66,4.63-16.66,13.88V170.93z"/>
<path class="st0" d="M1834.15,260.46c-11.57,0-20.47-1.5-26.72-4.51c-6.25-3-10.7-6.82-13.36-11.45c-2.66-4.62-4.28-9.48-4.86-14.57
	c-0.58-5.09-0.87-9.72-0.87-13.88v-66.62c0-3.47,0.29-7.69,0.87-12.67c0.57-4.97,2.2-9.89,4.86-14.75
	c2.66-4.86,7.17-8.9,13.53-12.14c6.36-3.24,15.21-4.86,26.54-4.86h17.7c21.28,0,38.46,0.41,51.53,1.21
	c13.07,0.81,23.07,1.68,30.01,2.6V40.47h42.33v219.99h-28.45l-13.53-6.94c-9.71,1.62-21.4,3.18-35.04,4.68
	c-13.65,1.51-29.38,2.26-47.19,2.26H1834.15z M1847.33,230.61h75.29c4.86,0,7.86-0.57,9.02-1.73c1.15-1.16,1.73-4.04,1.73-8.67
	v-82.93c-7.87-0.46-17.81-0.98-29.84-1.56c-12.03-0.57-24.87-0.87-38.52-0.87h-17.7c-11.1,0-16.66,4.63-16.66,13.88v68.01
	C1830.68,225.99,1836.23,230.61,1847.33,230.61z"/>
</svg>
