<?xml version="1.0" encoding="utf-8"?>
<!-- Generator: Adobe Illustrator 26.0.0, SVG Export Plug-In . SVG Version: 6.00 Build 0)  -->
<svg version="1.1" id="Layer_1" xmlns="http://www.w3.org/2000/svg" xmlns:xlink="http://www.w3.org/1999/xlink" x="0px" y="0px"
	 viewBox="0 0 2000 500" style="enable-background:new 0 0 2000 500;" xml:space="preserve">
<style type="text/css">
	.st0{fill:#575756;}
</style>
<g>
	<path class="st0" d="M87.79,247c-16.43,0-29.27-2.31-38.52-6.94c-9.25-4.62-15.73-11.56-19.43-20.82
		c-3.7-9.25-5.55-20.7-5.55-34.35v-77.38c0-22.21,4.97-38.57,14.92-49.1c9.94-10.52,26.14-15.79,48.58-15.79h104.44
		c15.96,0,28.16,0.87,36.61,2.6c8.44,1.73,12.67,3.53,12.67,5.38l-6.94,28.8c-3.94-0.69-15.56-1.44-34.87-2.26
		c-19.32-0.81-47.36-1.21-84.14-1.21h-17.7c-18.51,0-27.76,8.21-27.76,24.64v88.48c0,7.87,2.02,13.94,6.07,18.22
		c4.04,4.28,11.28,6.42,21.69,6.42h14.23c38.4,0,68.18-0.4,89.35-1.21c21.17-0.81,34.29-1.67,39.38-2.6l14.23,22.9
		c0,1.16-1.91,2.9-5.73,5.21c-3.82,2.31-10.82,4.4-20.99,6.25c-10.18,1.85-24.87,2.78-44.07,2.78H87.79z"/>
	<path class="st0" d="M282.79,247V22.15h42.33v76.34c9.72-1.85,21.39-3.47,35.05-4.86c13.65-1.39,29.26-2.08,46.84-2.08h17.35
		c11.56,0,20.47,1.62,26.72,4.86c6.25,3.24,10.7,7.29,13.36,12.14c2.66,4.86,4.28,9.77,4.86,14.75c0.57,4.98,0.87,9.2,0.87,12.67
		V247h-42.33V135.27c0-9.25-5.55-13.88-16.66-13.88h-75.64c-4.4,0-7.23,0.41-8.5,1.21c-1.27,0.81-1.91,2.95-1.91,6.42V247H282.79z"
		/>
	<path class="st0" d="M510.06,247V88.08h28.6l13.03,10.41c6.01-3.24,12.49-5.78,19.43-7.63c6.94-1.85,15.73-2.78,26.37-2.78
		c16.88,0,30.59,1.85,41.12,5.55c10.52,3.7,17.52,6.48,20.99,8.33l-12.14,30.19c-2.78-1.39-7.35-3.18-13.71-5.38
		c-6.36-2.2-13.83-4.22-22.38-6.07c-8.56-1.85-17.93-2.78-28.11-2.78h-3.82c-11.1,0-16.11,3.9-19.46,8.29
		c-3.35,4.4-7.38,9.99-7.6,20.16V247H510.06z"/>
	<path class="st0" d="M726.23,247c-15.5,0-27.01-3.12-34.52-9.37c-7.52-6.25-11.28-16.42-11.28-30.54v-71.13
		c0-3.47,0.29-7.69,0.87-12.67c0.57-4.97,2.2-9.89,4.86-14.75c2.66-4.86,7.17-8.9,13.53-12.14c6.36-3.24,15.21-4.86,26.54-4.86H822
		c11.56,0,20.47,1.62,26.72,4.86c6.25,3.24,10.7,7.29,13.36,12.14c2.66,4.86,4.28,9.77,4.86,14.75c0.57,4.98,0.87,9.2,0.87,12.67
		v66.62c0,4.16-0.29,8.79-0.87,13.88c-0.58,5.09-2.26,9.95-5.03,14.57c-2.78,4.63-7.29,8.45-13.53,11.45
		C842.12,245.5,833.33,247,822,247H726.23z M739.42,217.16h69.4c11.33,0,17-4.62,17-13.88v-68.01c0-9.25-5.67-13.88-17-13.88h-69.4
		c-11.1,0-16.66,4.63-16.66,13.88v68.01C722.76,212.54,728.31,217.16,739.42,217.16z"/>
	<path class="st0" d="M905.97,247V91.55h28.45l13.88,6.94c9.72-1.85,21.39-3.47,35.05-4.86c13.65-1.39,29.26-2.08,46.84-2.08h17.35
		c11.56,0,20.47,1.62,26.72,4.86c6.25,3.24,10.7,7.29,13.36,12.14c2.66,4.86,4.28,9.77,4.86,14.75c0.57,4.98,0.87,9.2,0.87,12.67
		V247h-42.33V135.27c0-9.25-5.55-13.88-16.66-13.88h-75.64c-4.4,0-7.23,0.41-8.5,1.21c-1.27,0.81-1.91,2.95-1.91,6.42V247H905.97z"
		/>
	<path class="st0" d="M1175.57,247c-15.5,0-27.01-3.12-34.53-9.37c-7.52-6.25-11.28-16.42-11.28-30.54v-71.13
		c0-3.47,0.29-7.69,0.87-12.67c0.57-4.97,2.2-9.89,4.86-14.75c2.66-4.86,7.17-8.9,13.53-12.14c6.36-3.24,15.21-4.86,26.54-4.86
		h95.77c11.56,0,20.47,1.62,26.72,4.86c6.25,3.24,10.7,7.29,13.36,12.14c2.66,4.86,4.28,9.77,4.86,14.75
		c0.57,4.98,0.87,9.2,0.87,12.67v66.62c0,4.16-0.29,8.79-0.87,13.88c-0.58,5.09-2.26,9.95-5.03,14.57
		c-2.78,4.63-7.29,8.45-13.53,11.45c-6.25,3.01-15.04,4.51-26.37,4.51H1175.57z M1188.76,217.16h69.4c11.33,0,17-4.62,17-13.88
		v-68.01c0-9.25-5.67-13.88-17-13.88h-69.4c-11.1,0-16.65,4.63-16.65,13.88v68.01C1172.11,212.54,1177.66,217.16,1188.76,217.16z"/>
	<path class="st0" d="M1394.52,247c-15.5,0-26.49-0.81-32.96-2.43c-6.48-1.62-9.71-3.24-9.71-4.86l10.41-26.02
		c6.71,0.69,19.02,1.45,36.95,2.26c17.92,0.81,40.08,1.21,66.45,1.21H1483c5.78,0,9.42-1.56,10.93-4.68
		c1.5-3.12,2.26-7.34,2.26-12.66c0-5.32-0.87-9.6-2.6-12.84c-1.74-3.24-5.27-4.86-10.58-4.86h-85.36c-16.2,0-27.88-3.06-35.05-9.2
		c-7.17-6.13-10.76-15.32-10.76-27.58v-13.88c0-3.24,0.35-7.05,1.04-11.45c0.69-4.39,2.43-8.79,5.21-13.19
		c2.78-4.39,7.29-8.04,13.53-10.93c6.25-2.89,14.92-4.34,26.03-4.34h95.77c13.88,0,23.71,0.81,29.49,2.43
		c5.78,1.62,8.67,3.24,8.67,4.86l-3.47,26.02c-6.71-0.69-19.08-1.44-37.13-2.25c-18.04-0.81-40.14-1.21-66.27-1.21h-17.35
		c-5.79,0-9.43,1.56-10.93,4.68c-1.51,3.12-2.26,6.77-2.26,10.93c0,4.4,0.75,8.04,2.26,10.93c1.5,2.9,5.14,4.34,10.93,4.34h85.36
		c15.73,0,27.29,3.24,34.7,9.72c7.4,6.48,11.1,14.69,11.1,24.64v20.47c0,4.16-0.29,8.56-0.87,13.19c-0.58,4.63-2.26,8.97-5.03,13.01
		c-2.78,4.05-7.29,7.35-13.53,9.89c-6.25,2.55-15.04,3.82-26.37,3.82H1394.52z"/>
	<path class="st0" d="M1619.02,247c-11.57,0-20.47-1.5-26.72-4.51c-6.25-3-10.7-6.82-13.36-11.45c-2.66-4.62-4.28-9.48-4.86-14.57
		c-0.58-5.09-0.87-9.72-0.87-13.88v-66.62c0-3.47,0.29-7.69,0.87-12.67c0.57-4.97,2.2-9.89,4.86-14.75
		c2.66-4.86,7.17-8.9,13.53-12.14c6.36-3.24,15.21-4.86,26.54-4.86h74.6c15.27,0,27.24,1.45,35.91,4.34
		c8.68,2.9,14.8,7.58,18.39,14.05c3.58,6.48,5.38,15.15,5.38,26.02v51.35h-60.72c-20.82,0-37.77-0.46-50.83-1.39
		c-13.07-0.92-21.8-1.5-26.2-1.74v19.08c-0.23,9.25,5.32,13.88,16.66,13.88h17.7c12.49,0,24.69-0.17,36.61-0.52
		c11.91-0.35,22.84-0.81,32.79-1.39c9.94-0.58,17.92-1.1,23.94-1.56l13.88,22.55c0,7.17-22.79,10.76-68.36,10.76H1619.02z
		 M1615.54,157.48h95.42v-22.21c0-4.62-0.52-7.86-1.56-9.71c-1.04-1.85-4.11-3-9.2-3.47c-5.09-0.46-13.77-0.69-26.02-0.69h-41.98
		c-11.1,0-16.66,4.63-16.66,13.88V157.48z"/>
	<path class="st0" d="M1834.14,247c-11.57,0-20.47-1.5-26.72-4.51c-6.25-3-10.7-6.82-13.36-11.45c-2.66-4.62-4.28-9.48-4.86-14.57
		c-0.58-5.09-0.87-9.72-0.87-13.88v-66.62c0-3.47,0.29-7.69,0.87-12.67c0.57-4.97,2.2-9.89,4.86-14.75
		c2.66-4.86,7.17-8.9,13.53-12.14c6.36-3.24,15.21-4.86,26.54-4.86h17.7c21.28,0,38.46,0.41,51.53,1.21
		c13.07,0.81,23.07,1.68,30.01,2.6V27.01h42.33V247h-28.45l-13.53-6.94c-9.71,1.62-21.4,3.18-35.04,4.68
		c-13.65,1.51-29.38,2.26-47.19,2.26H1834.14z M1847.33,217.16h75.29c4.86,0,7.86-0.57,9.02-1.73c1.15-1.16,1.73-4.04,1.73-8.67
		v-82.93c-7.87-0.46-17.81-0.98-29.84-1.56c-12.03-0.57-24.87-0.87-38.52-0.87h-17.7c-11.1,0-16.66,4.63-16.66,13.88v68.01
		C1830.67,212.54,1836.23,217.16,1847.33,217.16z"/>
</g>
<g>
	<path class="st0" d="M478.91,438.94V324.12h21.62v38.98c4.96-0.94,10.92-1.77,17.9-2.48c6.97-0.71,14.94-1.06,23.92-1.06h8.86
		c5.91,0,10.45,0.83,13.64,2.48c3.19,1.66,5.46,3.72,6.82,6.2c1.36,2.48,2.18,4.99,2.48,7.53c0.29,2.54,0.44,4.7,0.44,6.47v56.7
		h-21.62v-57.05c0-4.72-2.83-7.09-8.5-7.09h-38.63c-2.25,0-3.69,0.21-4.34,0.62c-0.65,0.42-0.97,1.51-0.97,3.28v60.24H478.91z"/>
	<path class="st0" d="M618.35,438.94c-5.79,0-10.31-0.77-13.55-2.3c-3.25-1.53-5.55-3.48-6.91-5.85c-1.36-2.36-2.19-4.84-2.48-7.44
		c-0.3-2.6-0.44-4.96-0.44-7.09v-56.7h21.62v57.05c-0.12,2.6,0.74,4.43,2.57,5.49c1.83,1.06,3.81,1.6,5.94,1.6h35.08
		c2.6,0,4.13-0.24,4.61-0.71c0.47-0.47,0.71-2.01,0.71-4.61v-58.83h21.62v79.38h-14.53l-6.73-3.54c-4.73,0.95-10.31,1.77-16.74,2.48
		c-6.44,0.71-13.67,1.06-21.71,1.06H618.35z"/>
	<path class="st0" d="M708.36,438.94v-79.38h14.53l4.43,2.13c3.42-0.59,7.62-1.09,12.58-1.51c4.96-0.41,10.87-0.62,17.72-0.62h8.86
		c3.42,0,6.73,0.44,9.92,1.33c3.19,0.89,5.55,2.16,7.09,3.81c3.07-1.53,7.32-2.77,12.76-3.72c5.43-0.94,12.52-1.42,21.26-1.42h8.86
		c5.91,0,10.45,0.83,13.64,2.48c3.19,1.66,5.46,3.72,6.82,6.2c1.36,2.48,2.18,4.99,2.48,7.53c0.29,2.54,0.44,4.7,0.44,6.47v56.7
		h-21.62v-57.05c0-4.72-2.84-7.09-8.5-7.09h-24.81c-1.89,0-3.19,0.24-3.9,0.71c-0.71,0.47-1.06,1.54-1.06,3.19v60.24h-21.62v-57.05
		c0-4.72-2.84-7.09-8.5-7.09h-24.45c-2.25,0-3.69,0.21-4.34,0.62c-0.65,0.42-0.97,1.51-0.97,3.28v60.24H708.36z"/>
	<path class="st0" d="M892.98,438.94c-8.98,0-15.48-2.1-19.49-6.29c-4.02-4.19-6.02-9.95-6.02-17.28c0-7.68,2.1-13.58,6.29-17.72
		c4.19-4.13,10.6-6.2,19.22-6.2h9.04c8.86,0,16.83,0.24,23.92,0.71c7.09,0.47,12.93,0.95,17.54,1.42v-11.69
		c0-1.06-0.12-2.15-0.35-3.28c-0.24-1.12-0.95-2.04-2.13-2.75c-1.18-0.71-3.19-1.06-6.02-1.06h-8.86c-12.88,0-23.63,0.21-32.25,0.62
		c-8.62,0.42-14.47,0.8-17.54,1.15l-1.95-13.47c0-1.65,4.49-2.66,13.47-3.01c8.98-0.35,23.98-0.53,45-0.53h8.86
		c5.91,0,10.45,0.83,13.64,2.48c3.19,1.66,5.46,3.72,6.82,6.2c1.36,2.48,2.18,4.99,2.48,7.53c0.29,2.54,0.44,4.7,0.44,6.47v56.7
		h-14.53l-6.91-3.54c-4.96,0.83-10.93,1.63-17.9,2.39c-6.97,0.77-14.94,1.15-23.92,1.15H892.98z M897.59,423.7h40.57
		c2.6,0,4.13-0.24,4.61-0.71c0.47-0.47,0.71-1.95,0.71-4.43v-13.64h-45.89c-3.19,0-5.4,0.77-6.64,2.3
		c-1.24,1.54-1.86,3.96-1.86,7.26c0,3.31,0.71,5.67,2.13,7.09C892.63,422.99,894.76,423.7,897.59,423.7z"/>
	<path class="st0" d="M985.47,438.94v-79.38H1000l7.09,3.54c4.96-0.94,10.92-1.77,17.9-2.48c6.97-0.71,14.94-1.06,23.92-1.06h8.86
		c5.91,0,10.45,0.83,13.64,2.48c3.19,1.66,5.46,3.72,6.82,6.2c1.36,2.48,2.18,4.99,2.48,7.53c0.29,2.54,0.44,4.7,0.44,6.47v56.7
		h-21.62v-57.05c0-4.72-2.84-7.09-8.5-7.09h-38.63c-2.25,0-3.69,0.21-4.34,0.62c-0.65,0.42-0.97,1.51-0.97,3.28v60.24H985.47z"/>
	<path class="st0" d="M1171.34,438.94c-8.98,0-15.12-1.89-18.43-5.67c-3.31-3.78-4.96-9.45-4.96-17.01V374.8h-14.53v-15.24h7.44
		c2.24,0,3.87-0.35,4.87-1.06c1-0.71,1.74-2.13,2.21-4.25l3.54-18.96h18.07v24.27h36.85v15.24h-36.85v41.64
		c0,2.95,0.71,4.9,2.13,5.85c1.42,0.95,3.54,1.42,6.38,1.42h24.98l1.77,13.47c-2.48,0.35-6.26,0.74-11.34,1.15
		c-5.08,0.42-10.63,0.62-16.66,0.62H1171.34z"/>
	<path class="st0" d="M1233.17,348.4c-4.37,0-7.56-0.89-9.57-2.66c-2.01-1.77-3.01-4.72-3.01-8.86c0-4.25,0.97-7.23,2.92-8.95
		c1.95-1.71,5.17-2.57,9.66-2.57c4.49,0,7.73,0.86,9.75,2.57c2.01,1.71,3.01,4.7,3.01,8.95c0,4.02-1.01,6.94-3.01,8.77
		C1240.91,347.48,1237.66,348.4,1233.17,348.4z M1222.36,438.94v-79.38h21.62v79.38H1222.36z"/>
	<path class="st0" d="M1267.19,438.94v-79.38h14.53l4.43,2.13c3.42-0.59,7.62-1.09,12.58-1.51c4.96-0.41,10.87-0.62,17.72-0.62h8.86
		c3.43,0,6.73,0.44,9.92,1.33c3.19,0.89,5.55,2.16,7.09,3.81c3.07-1.53,7.32-2.77,12.76-3.72c5.43-0.94,12.52-1.42,21.26-1.42h8.86
		c5.91,0,10.45,0.83,13.64,2.48c3.19,1.66,5.46,3.72,6.82,6.2c1.36,2.48,2.18,4.99,2.48,7.53c0.29,2.54,0.44,4.7,0.44,6.47v56.7
		h-21.62v-57.05c0-4.72-2.84-7.09-8.5-7.09h-24.81c-1.89,0-3.19,0.24-3.9,0.71c-0.71,0.47-1.06,1.54-1.06,3.19v60.24h-21.62v-57.05
		c0-4.72-2.84-7.09-8.51-7.09h-24.45c-2.24,0-3.69,0.21-4.34,0.62c-0.65,0.42-0.97,1.51-0.97,3.28v60.24H1267.19z"/>
	<path class="st0" d="M1450.57,438.94c-5.91,0-10.45-0.77-13.64-2.3c-3.19-1.53-5.47-3.48-6.82-5.85c-1.36-2.36-2.19-4.84-2.48-7.44
		c-0.3-2.6-0.44-4.96-0.44-7.09v-34.02c0-1.77,0.15-3.93,0.44-6.47c0.29-2.54,1.12-5.05,2.48-7.53c1.36-2.48,3.66-4.55,6.91-6.2
		c3.25-1.65,7.77-2.48,13.55-2.48h38.09c7.8,0,13.91,0.74,18.34,2.21c4.43,1.48,7.56,3.87,9.39,7.18c1.83,3.31,2.75,7.74,2.75,13.29
		v26.22h-31.01c-10.63,0-19.29-0.23-25.96-0.71c-6.67-0.47-11.13-0.77-13.38-0.89v9.75c-0.12,4.73,2.72,7.09,8.5,7.09h9.04
		c6.38,0,12.61-0.09,18.69-0.27c6.08-0.18,11.66-0.41,16.74-0.71c5.08-0.29,9.15-0.56,12.23-0.8l7.09,11.52
		c0,3.66-11.64,5.49-34.91,5.49H1450.57z M1448.8,393.22h48.73v-11.34c0-2.36-0.27-4.01-0.8-4.96c-0.53-0.94-2.1-1.53-4.7-1.77
		c-2.6-0.24-7.03-0.35-13.29-0.35h-21.44c-5.67,0-8.5,2.36-8.5,7.09V393.22z"/>
</g>
</svg>
