<?xml version="1.0" encoding="utf-8"?>
<!-- Generator: Adobe Illustrator 26.0.0, SVG Export Plug-In . SVG Version: 6.00 Build 0)  -->
<svg version="1.1" id="Layer_3" xmlns="http://www.w3.org/2000/svg" xmlns:xlink="http://www.w3.org/1999/xlink" x="0px" y="0px"
	 viewBox="0 0 2000 2000" style="enable-background:new 0 0 2000 2000;" xml:space="preserve">
<style type="text/css">
	.st0{fill:#706F6F;}
	.st1{fill:#575756;stroke:#000000;stroke-width:0.25;stroke-miterlimit:10;}
	.st2{fill:#3C3C3B;stroke:#000000;stroke-width:0.25;stroke-miterlimit:10;}
</style>
<path class="st0" d="M1288.5,1849.99h-265c-469.44,0-850-380.57-850-850c0-469.45,380.56-850,850-850h252.85c2.76,0,5,2.26,5,5.05
	c0,0.35-0.03,0.69-0.1,1.02c-0.07,0.33-0.17,0.65-0.29,0.95c-0.07,0.14-0.14,0.3-0.21,0.44c-0.22,0.39-0.48,0.75-0.79,1.07
	l-0.01,0.01c-0.02,0.03-0.04,0.05-0.07,0.08l-139.25,139.24l-1.35,1.36c-0.57,0.39-1.23,0.66-1.93,0.78H1023.5
	c-386.6,0-700,313.4-700,700s313.4,700,700,700h115L1288.5,1849.99z"/>
<path class="st1" d="M1186.89,1528.48h-164.76c-291.89,0-528.5-236.62-528.5-528.5c0-282.57,221.76-513.34,500.74-527.77
	c0.6-0.04,1.2-0.07,1.8-0.1c1.08,0.14,2.06,0.62,2.8,1.33L885.91,586.5c-173.66,57.16-299.02,220.68-299.02,413.48
	c0,240.37,194.86,435.24,435.24,435.24h71.5L1186.89,1528.48z"/>
<path class="st2" d="M1288.5,1051.6H885.87V586.54l0.04-0.04l113.06-113.06c0.84,0.8,1.4,1.89,1.52,3.12v459.38h172.34
	L1288.5,1051.6z"/>
</svg>
