<?xml version="1.0" encoding="utf-8"?>
<!-- Generator: Adobe Illustrator 26.0.0, SVG Export Plug-In . SVG Version: 6.00 Build 0)  -->
<svg version="1.1" id="Layer_3" xmlns="http://www.w3.org/2000/svg" xmlns:xlink="http://www.w3.org/1999/xlink" x="0px" y="0px"
	 viewBox="0 0 2000 2000" style="enable-background:new 0 0 2000 2000;" xml:space="preserve">
<style type="text/css">
	.st0{fill:#706F6F;}
	.st1{fill:#575756;stroke:#000000;stroke-width:0.25;stroke-miterlimit:10;}
	.st2{fill:#3C3C3B;stroke:#000000;stroke-width:0.25;stroke-miterlimit:10;}
</style>
<path class="st0" d="M1353.24,1869.71h-265c-469.44,0-850-380.56-850-850s380.56-850,850-850h252.93c-2.76,0-5,2.24-5,5
	c0,2.76,2.24,5,5,5c1.38,0,2.63-0.56,3.53-1.47h0.01l-139.34,139.34l-1.35,1.35c-0.57,0.39-1.23,0.66-1.93,0.78h-113.85
	c-386.6,0-700,313.4-700,700s313.4,700,700,700h115L1353.24,1869.71z"/>
<path class="st1" d="M1251.63,1548.21h-164.76c-291.89,0-528.5-236.62-528.5-528.5c0-282.57,221.76-513.34,500.74-527.77
	c0.6-0.04,1.2-0.07,1.8-0.1c1.08,0.14,2.06,0.62,2.8,1.33L950.65,606.23c-173.66,57.16-299.02,220.68-299.02,413.48
	c0,240.37,194.86,435.24,435.24,435.24h71.5L1251.63,1548.21z"/>
<path class="st2" d="M1353.24,1071.33H950.61V606.27l0.04-0.04l113.06-113.06c0.84,0.8,1.4,1.89,1.52,3.12v459.38h172.34
	L1353.24,1071.33z"/>
<path class="st0" d="M1346.17,174.71c0,0.35-0.03,0.68-0.1,1.01c-0.07,0.32-0.17,0.64-0.29,0.94c-0.07,0.14-0.14,0.29-0.21,0.43
	c-0.24,0.43-0.53,0.81-0.87,1.15c-0.9,0.91-2.15,1.47-3.53,1.47c-2.76,0-5-2.24-5-5c0-2.76,2.24-5,5-5
	S1346.17,171.95,1346.17,174.71z"/>
</svg>
