<?xml version="1.0" encoding="utf-8"?>
<!-- Generator: Adobe Illustrator 26.0.0, SVG Export Plug-In . SVG Version: 6.00 Build 0)  -->
<svg version="1.1" id="Layer_1" xmlns="http://www.w3.org/2000/svg" xmlns:xlink="http://www.w3.org/1999/xlink" x="0px" y="0px"
	 viewBox="0 0 2000 300" style="enable-background:new 0 0 2000 300;" xml:space="preserve">
<style type="text/css">
	.st0{fill:#575756;}
</style>
<g>
	<path class="st0" d="M20.06,257.02V40.36h40.79v73.55c9.36-1.78,20.61-3.34,33.77-4.68c13.15-1.34,28.19-2.01,45.14-2.01h16.72
		c11.14,0,19.73,1.56,25.74,4.68c6.02,3.12,10.31,7.02,12.87,11.7c2.56,4.68,4.12,9.42,4.68,14.21c0.55,4.8,0.84,8.86,0.84,12.2
		v106.99h-40.79V149.36c0-8.91-5.35-13.37-16.05-13.37H70.88c-4.24,0-6.97,0.39-8.19,1.17c-1.23,0.78-1.84,2.84-1.84,6.19v113.68
		H20.06z"/>
	<path class="st0" d="M283.19,257.02c-10.92,0-19.45-1.45-25.58-4.35c-6.13-2.89-10.48-6.57-13.04-11.03
		c-2.56-4.46-4.13-9.14-4.68-14.04c-0.56-4.9-0.84-9.36-0.84-13.37V107.23h40.79v107.66c-0.22,4.91,1.39,8.36,4.85,10.36
		c3.45,2.01,7.19,3.01,11.2,3.01h66.2c4.9,0,7.8-0.44,8.69-1.34c0.89-0.89,1.34-3.79,1.34-8.69v-111h40.79v149.78h-27.42
		l-12.71-6.69c-8.92,1.79-19.45,3.34-31.6,4.68c-12.15,1.34-25.8,2.01-40.96,2.01H283.19z"/>
	<path class="st0" d="M453.03,257.02V107.23h27.42l8.36,4.01c6.46-1.11,14.38-2.06,23.74-2.84c9.36-0.78,20.5-1.17,33.43-1.17h16.72
		c6.46,0,12.7,0.84,18.72,2.51c6.02,1.67,10.47,4.07,13.37,7.19c5.79-2.89,13.82-5.23,24.07-7.02c10.25-1.78,23.62-2.67,40.12-2.67
		h16.72c11.14,0,19.73,1.56,25.74,4.68c6.02,3.12,10.31,7.02,12.87,11.7c2.56,4.68,4.12,9.42,4.68,14.21
		c0.55,4.8,0.84,8.86,0.84,12.2v106.99h-40.79V149.36c0-8.91-5.35-13.37-16.05-13.37h-46.81c-3.57,0-6.02,0.45-7.36,1.34
		c-1.34,0.89-2.01,2.9-2.01,6.02v113.68h-40.79V149.36c0-8.91-5.35-13.37-16.05-13.37h-46.14c-4.24,0-6.97,0.39-8.19,1.17
		c-1.23,0.78-1.84,2.84-1.84,6.19v113.68H453.03z"/>
	<path class="st0" d="M801.41,257.02c-16.94,0-29.2-3.96-36.78-11.87c-7.58-7.91-11.37-18.78-11.37-32.6
		c0-14.49,3.95-25.63,11.87-33.43c7.91-7.8,20-11.7,36.28-11.7h17.05c16.72,0,31.76,0.45,45.14,1.34
		c13.37,0.89,24.41,1.79,33.1,2.67v-22.07c0-2.01-0.22-4.06-0.67-6.19c-0.45-2.12-1.79-3.84-4.01-5.18
		c-2.23-1.34-6.02-2.01-11.37-2.01h-16.72c-24.3,0-44.58,0.39-60.85,1.17c-16.27,0.78-27.31,1.5-33.1,2.17l-3.68-25.41
		c0-3.12,8.47-5.02,25.41-5.68c16.94-0.67,45.25-1,84.92-1h16.72c11.14,0,19.73,1.56,25.74,4.68c6.02,3.12,10.31,7.02,12.87,11.7
		c2.56,4.68,4.12,9.42,4.68,14.21c0.55,4.8,0.84,8.86,0.84,12.2v106.99h-27.42l-13.04-6.69c-9.36,1.56-20.62,3.07-33.77,4.51
		c-13.15,1.45-28.2,2.17-45.14,2.17H801.41z M810.1,228.26h76.56c4.9,0,7.8-0.44,8.69-1.34c0.89-0.89,1.34-3.68,1.34-8.36v-25.74
		H810.1c-6.02,0-10.2,1.45-12.54,4.35c-2.34,2.9-3.51,7.47-3.51,13.71c0,6.24,1.34,10.7,4.01,13.37
		C800.74,226.92,804.75,228.26,810.1,228.26z"/>
	<path class="st0" d="M975.93,257.02V107.23h27.42l13.37,6.69c9.36-1.78,20.61-3.34,33.77-4.68c13.15-1.34,28.19-2.01,45.14-2.01
		h16.72c11.14,0,19.73,1.56,25.74,4.68c6.02,3.12,10.31,7.02,12.87,11.7c2.56,4.68,4.12,9.42,4.68,14.21
		c0.55,4.8,0.84,8.86,0.84,12.2v106.99h-40.79V149.36c0-8.91-5.35-13.37-16.05-13.37h-72.89c-4.24,0-6.97,0.39-8.19,1.17
		c-1.23,0.78-1.84,2.84-1.84,6.19v113.68H975.93z"/>
	<path class="st0" d="M1326.65,257.02c-16.94,0-28.53-3.56-34.77-10.7c-6.24-7.13-9.36-17.83-9.36-32.1v-78.24h-27.42v-28.75h14.04
		c4.23,0,7.3-0.67,9.19-2.01c1.89-1.34,3.29-4.01,4.18-8.02l6.69-35.77h34.1v45.8h69.54v28.75h-69.54v78.57
		c0,5.57,1.34,9.25,4.01,11.03c2.67,1.79,6.69,2.67,12.04,2.67h47.14l3.34,25.41c-4.68,0.67-11.82,1.4-21.4,2.17
		c-9.59,0.78-20.06,1.17-31.43,1.17H1326.65z"/>
	<path class="st0" d="M1443.33,86.17c-8.25,0-14.27-1.67-18.05-5.02c-3.79-3.34-5.68-8.91-5.68-16.72c0-8.02,1.84-13.65,5.52-16.88
		c3.68-3.23,9.75-4.85,18.22-4.85c8.47,0,14.6,1.62,18.39,4.85c3.79,3.23,5.68,8.86,5.68,16.88c0,7.58-1.9,13.1-5.68,16.55
		C1457.93,84.44,1451.8,86.17,1443.33,86.17z M1422.94,257.02V107.23h40.79v149.78H1422.94z"/>
	<path class="st0" d="M1507.52,257.02V107.23h27.42l8.36,4.01c6.46-1.11,14.38-2.06,23.74-2.84c9.36-0.78,20.5-1.17,33.43-1.17
		h16.72c6.46,0,12.71,0.84,18.72,2.51c6.02,1.67,10.47,4.07,13.37,7.19c5.79-2.89,13.82-5.23,24.07-7.02
		c10.25-1.78,23.62-2.67,40.12-2.67h16.72c11.14,0,19.73,1.56,25.74,4.68c6.02,3.12,10.31,7.02,12.87,11.7
		c2.56,4.68,4.12,9.42,4.68,14.21c0.55,4.8,0.83,8.86,0.83,12.2v106.99h-40.79V149.36c0-8.91-5.35-13.37-16.05-13.37h-46.81
		c-3.57,0-6.02,0.45-7.36,1.34c-1.34,0.89-2.01,2.9-2.01,6.02v113.68h-40.79V149.36c0-8.91-5.35-13.37-16.05-13.37h-46.14
		c-4.24,0-6.97,0.39-8.19,1.17c-1.23,0.78-1.84,2.84-1.84,6.19v113.68H1507.52z"/>
	<path class="st0" d="M1853.56,257.02c-11.15,0-19.73-1.45-25.74-4.35c-6.02-2.89-10.31-6.57-12.87-11.03
		c-2.56-4.46-4.13-9.14-4.68-14.04c-0.56-4.9-0.84-9.36-0.84-13.37v-64.19c0-3.34,0.28-7.41,0.84-12.2
		c0.55-4.79,2.12-9.53,4.68-14.21c2.56-4.68,6.91-8.58,13.04-11.7c6.13-3.12,14.65-4.68,25.58-4.68h71.88
		c14.71,0,26.25,1.39,34.6,4.18c8.36,2.79,14.26,7.3,17.72,13.54c3.45,6.24,5.18,14.6,5.18,25.08v49.48h-58.51
		c-20.06,0-36.39-0.44-48.98-1.34c-12.59-0.89-21.01-1.45-25.24-1.67v18.39c-0.22,8.92,5.12,13.37,16.05,13.37h17.05
		c12.04,0,23.79-0.17,35.27-0.5c11.48-0.33,22.01-0.78,31.6-1.34c9.58-0.55,17.27-1.06,23.07-1.5l13.37,21.73
		c0,6.91-21.96,10.36-65.87,10.36H1853.56z M1850.22,170.76h91.94v-21.4c0-4.46-0.5-7.58-1.5-9.36c-1-1.78-3.96-2.89-8.86-3.34
		c-4.91-0.44-13.26-0.67-25.08-0.67h-40.46c-10.7,0-16.05,4.46-16.05,13.37V170.76z"/>
</g>
</svg>
